# Sphere OBJ file with UV mapping
mtllib sphere.mtl

# Object definition
o Sphere
g Sphere

# Vertices
v 0.000000 -1.000000 0.000000
v 0.723607 -0.447220 0.525725
v -0.276388 -0.447220 0.850649
v -0.894426 -0.447216 0.000000
v -0.276388 -0.447220 -0.850649
v 0.723607 -0.447220 -0.525725
v 0.276388 0.447220 0.850649
v -0.723607 0.447220 0.525725
v -0.723607 0.447220 -0.525725
v 0.276388 0.447220 -0.850649
v 0.894426 0.447216 0.000000
v 0.000000 1.000000 0.000000

# Texture coordinates
vt 0.0 0.0
vt 0.1 0.0
vt 0.2 0.0
vt 0.3 0.0
vt 0.4 0.0
vt 0.5 0.0
vt 0.6 0.0
vt 0.7 0.0
vt 0.8 0.0
vt 0.9 0.0
vt 1.0 0.0
vt 0.0 0.1
vt 0.1 0.1
vt 0.2 0.1
vt 0.3 0.1
vt 0.4 0.1
vt 0.5 0.1
vt 0.6 0.1
vt 0.7 0.1
vt 0.8 0.1
vt 0.9 0.1
vt 1.0 0.1
vt 0.0 0.5
vt 0.1 0.5
vt 0.2 0.5
vt 0.3 0.5
vt 0.4 0.5
vt 0.5 0.5
vt 0.6 0.5
vt 0.7 0.5
vt 0.8 0.5
vt 0.9 0.5
vt 1.0 0.5
vt 0.0 1.0
vt 0.1 1.0
vt 0.2 1.0
vt 0.3 1.0
vt 0.4 1.0
vt 0.5 1.0
vt 0.6 1.0
vt 0.7 1.0
vt 0.8 1.0
vt 0.9 1.0
vt 1.0 1.0

# Normals
vn 0.000000 -1.000000 0.000000
vn 0.723607 -0.447220 0.525725
vn -0.276388 -0.447220 0.850649
vn -0.894426 -0.447216 0.000000
vn -0.276388 -0.447220 -0.850649
vn 0.723607 -0.447220 -0.525725
vn 0.276388 0.447220 0.850649
vn -0.723607 0.447220 0.525725
vn -0.723607 0.447220 -0.525725
vn 0.276388 0.447220 -0.850649
vn 0.894426 0.447216 0.000000
vn 0.000000 1.000000 0.000000

# Material
usemtl default

# Faces
f 1/1/1 2/2/2 3/3/3
f 1/1/1 3/3/3 4/4/4
f 1/1/1 4/4/4 5/5/5
f 1/1/1 5/5/5 6/6/6
f 1/1/1 6/6/6 2/2/2
f 2/2/2 6/6/6 11/11/11
f 2/2/2 11/11/11 7/7/7
f 2/2/2 7/7/7 3/3/3
f 3/3/3 7/7/7 8/8/8
f 3/3/3 8/8/8 4/4/4
f 4/4/4 8/8/8 9/9/9
f 4/4/4 9/9/9 5/5/5
f 5/5/5 9/9/9 10/10/10
f 5/5/5 10/10/10 6/6/6
f 6/6/6 10/10/10 11/11/11
f 7/7/7 11/11/11 12/12/12
f 7/7/7 12/12/12 8/8/8
f 8/8/8 12/12/12 9/9/9
f 9/9/9 12/12/12 10/10/10
f 10/10/10 12/12/12 11/11/11